<svg xmlns="http://www.w3.org/2000/svg" viewBox="0 0 32 32" role="img" aria-label="Flag of China">
  <rect width="32" height="32" rx="6" fill="#de2910"/>
  <path fill="#ffde00" d="M8 5.5l.84 2.58h2.72L9.36 9.68l.84 2.58L8 10.66l-2.2 1.6.84-2.58-2.2-1.6h2.72L8 5.5zM15.4 5.05l.2 1.05 1.04.18-.94.5.15 1.06-.77-.74-.95.47.47-.96-.74-.76 1.06.15.48-.95zM18.15 9.05l-.23 1.04.9.56-1.05.1-.25 1.03-.42-.98-1.06.08.8-.7-.4-.99.91.55.8-.69zM17.8 14.6l-.62.86.6.88-1.02-.33-.65.85v-1.07l-1-.35 1.02-.33.03-1.07.62.87 1.02-.31zM14.55 18.85l-.94.5.15 1.06-.77-.74-.95.47.47-.96-.74-.76 1.06.15.5-.95.2 1.05 1.02.18z"/>
</svg>
